<svg width="289" height="112" viewBox="0 0 289 112" fill="none" xmlns="http://www.w3.org/2000/svg">
<path d="M22.0625 59.6426C22.0625 59.6426 0.000589683 34.2474 3.28535e-06 22.0625C4.35057e-06 9.87786 9.87789 8.09294e-05 22.0625 -1.92877e-06C34.2472 -8.63546e-07 44.125 9.87781 44.125 22.0625C44.1244 34.2474 22.0625 59.6426 22.0625 59.6426ZM22.0645 26.8369C26.2345 26.8369 29.6152 23.4562 29.6152 19.2861C29.615 15.1163 26.2344 11.7363 22.0645 11.7363C17.8947 11.7364 14.5139 15.1164 14.5137 19.2861C14.5137 23.4561 17.8945 26.8368 22.0645 26.8369Z" fill="#FFF9F9"/>
<path d="M33.8876 85.3624C33.8876 91.8924 28.594 97.186 22.064 97.186C15.5341 97.186 10.2405 91.8924 10.2405 85.3624C10.2405 78.8325 22.064 65.2227 22.064 65.2227C22.064 65.2227 33.8876 78.8325 33.8876 85.3624Z" fill="#FFF9F9"/>
<path d="M98.0929 4.94824C102.031 4.94824 105.433 5.69086 108.3 7.1761C111.201 8.62681 113.412 10.7165 114.931 13.4452C116.486 16.1739 117.263 19.3862 117.263 23.082C117.263 26.7778 116.486 29.9901 114.931 32.7188C113.412 35.413 111.201 37.4854 108.3 38.9361C105.433 40.3523 102.031 41.0604 98.0929 41.0604H86.85V4.94824H98.0929ZM98.0929 37.1745C102.756 37.1745 106.314 35.9484 108.766 33.496C111.218 31.0091 112.445 27.5377 112.445 23.082C112.445 18.5917 111.201 15.0859 108.714 12.5644C106.262 10.043 102.721 8.78224 98.0929 8.78224H91.5648V37.1745H98.0929Z" fill="#FFF9F9"/>
<path d="M135.865 41.5266C133.205 41.5266 130.787 40.9222 128.611 39.7133C126.47 38.5044 124.777 36.7946 123.534 34.584C122.325 32.3389 121.72 29.7483 121.72 26.8124C121.72 23.911 122.342 21.355 123.585 19.1444C124.863 16.8993 126.59 15.1895 128.767 14.0151C130.943 12.8062 133.378 12.2017 136.072 12.2017C138.766 12.2017 141.201 12.8062 143.377 14.0151C145.553 15.1895 147.263 16.882 148.506 19.0926C149.784 21.3032 150.423 23.8764 150.423 26.8124C150.423 29.7483 149.767 32.3389 148.455 34.584C147.177 36.7946 145.432 38.5044 143.222 39.7133C141.011 40.9222 138.559 41.5266 135.865 41.5266ZM135.865 37.3818C137.557 37.3818 139.146 36.9846 140.631 36.1901C142.116 35.3957 143.308 34.2041 144.206 32.6152C145.139 31.0263 145.605 29.0921 145.605 26.8124C145.605 24.5327 145.156 22.5984 144.258 21.0096C143.36 19.4207 142.186 18.2463 140.735 17.4865C139.284 16.692 137.713 16.2948 136.02 16.2948C134.293 16.2948 132.704 16.692 131.253 17.4865C129.837 18.2463 128.697 19.4207 127.834 21.0096C126.97 22.5984 126.539 24.5327 126.539 26.8124C126.539 29.1266 126.953 31.0781 127.782 32.667C128.646 34.2559 129.785 35.4475 131.202 36.242C132.618 37.0018 134.172 37.3818 135.865 37.3818Z" fill="#FFF9F9"/>
<path d="M182.528 25.7762C182.528 26.6742 182.476 27.6241 182.372 28.6258H159.679C159.852 31.4235 160.802 33.6169 162.529 35.2057C164.291 36.7601 166.415 37.5372 168.902 37.5372C170.94 37.5372 172.632 37.0709 173.979 36.1383C175.361 35.1712 176.328 33.8932 176.881 32.3043H181.958C181.198 35.033 179.678 37.2609 177.399 38.9879C175.119 40.6804 172.287 41.5266 168.902 41.5266C166.208 41.5266 163.79 40.9222 161.648 39.7133C159.541 38.5044 157.883 36.7946 156.674 34.584C155.465 32.3389 154.861 29.7483 154.861 26.8124C154.861 23.8764 155.448 21.3032 156.623 19.0926C157.797 16.882 159.438 15.1895 161.545 14.0151C163.686 12.8062 166.138 12.2017 168.902 12.2017C171.596 12.2017 173.979 12.7889 176.052 13.9633C178.124 15.1377 179.713 16.7611 180.818 18.8335C181.958 20.8714 182.528 23.1856 182.528 25.7762ZM177.658 24.7918C177.658 22.9957 177.26 21.4586 176.466 20.1806C175.672 18.8681 174.584 17.8837 173.202 17.2274C171.855 16.5366 170.352 16.1912 168.694 16.1912C166.311 16.1912 164.273 16.9511 162.581 18.4709C160.923 19.9906 159.973 22.0976 159.731 24.7918H177.658Z" fill="#FFF9F9"/>
<path d="M99.8027 97.5514C95.4161 97.5514 91.7893 96.5324 88.9224 94.4945C86.0901 92.4221 84.5531 89.3998 84.3113 85.4276H96.5386C96.7113 87.5346 97.6439 88.5881 99.3364 88.5881C99.9581 88.5881 100.476 88.4499 100.891 88.1736C101.34 87.8628 101.564 87.3965 101.564 86.7747C101.564 85.9112 101.098 85.2204 100.165 84.7023C99.2328 84.1496 97.7821 83.5279 95.8133 82.8371C93.4645 82.0081 91.513 81.1964 89.9587 80.402C88.4389 79.6076 87.1263 78.4505 86.021 76.9307C84.9157 75.4109 84.3804 73.4594 84.4149 71.0761C84.4149 68.6928 85.0194 66.6721 86.2283 65.0142C87.4717 63.3217 89.147 62.0437 91.2539 61.1802C93.3954 60.3167 95.796 59.8849 98.4556 59.8849C102.946 59.8849 106.504 60.9212 109.129 62.9936C111.788 65.066 113.187 67.9847 113.325 71.7496H100.943C100.908 70.7134 100.649 69.9708 100.165 69.5217C99.6818 69.0727 99.0946 68.8482 98.4038 68.8482C97.9202 68.8482 97.523 69.0209 97.2122 69.3663C96.9013 69.6772 96.7459 70.1262 96.7459 70.7134C96.7459 71.5424 97.1949 72.2332 98.0929 72.7858C99.0255 73.3039 100.494 73.9429 102.497 74.7028C104.811 75.5663 106.711 76.3953 108.196 77.1897C109.716 77.9842 111.028 79.0895 112.134 80.5056C113.239 81.9218 113.792 83.7006 113.792 85.8421C113.792 88.0873 113.239 90.1079 112.134 91.904C111.028 93.6656 109.422 95.0472 107.315 96.0489C105.208 97.0505 102.704 97.5514 99.8027 97.5514Z" fill="#FFF9F9"/>
<path d="M116.279 82.578C116.279 79.5039 116.797 76.8443 117.833 74.5992C118.904 72.3195 120.354 70.5925 122.185 69.4181C124.016 68.2092 126.071 67.6047 128.35 67.6047C130.25 67.6047 131.891 68.002 133.272 68.7964C134.654 69.5563 135.708 70.6098 136.433 71.9568V67.9674H147.883V97.1887H136.433V93.1993C135.708 94.5463 134.654 95.6171 133.272 96.4115C131.891 97.1714 130.25 97.5514 128.35 97.5514C126.071 97.5514 124.016 96.9642 122.185 95.7898C120.354 94.5809 118.904 92.8539 117.833 90.6087C116.797 88.329 116.279 85.6522 116.279 82.578ZM136.433 82.578C136.433 81.0237 136.036 79.8148 135.241 78.9513C134.447 78.0878 133.428 77.656 132.184 77.656C130.941 77.656 129.922 78.0878 129.128 78.9513C128.333 79.8148 127.936 81.0237 127.936 82.578C127.936 84.1324 128.333 85.3413 129.128 86.2048C129.922 87.0683 130.941 87.5001 132.184 87.5001C133.428 87.5001 134.447 87.0683 135.241 86.2048C136.036 85.3413 136.433 84.1324 136.433 82.578Z" fill="#FFF9F9"/>
<path d="M173.513 67.7602C176.864 67.7602 179.471 68.8827 181.337 71.1279C183.236 73.373 184.186 76.4126 184.186 80.2466V97.1887H172.736V81.6973C172.736 80.3157 172.356 79.2276 171.596 78.4332C170.871 77.6042 169.886 77.1897 168.643 77.1897C167.365 77.1897 166.363 77.6042 165.638 78.4332C164.913 79.2276 164.55 80.3157 164.55 81.6973V97.1887H153.048V67.9674H164.55V72.4231C165.448 71.0415 166.64 69.919 168.125 69.0554C169.645 68.1919 171.441 67.7602 173.513 67.7602Z" fill="#FFF9F9"/>
<path d="M199.691 67.6047C201.591 67.6047 203.232 68.002 204.613 68.7964C205.995 69.5563 207.049 70.6098 207.774 71.9568V67.9674H219.224V96.6706C219.224 99.3993 218.723 101.886 217.722 104.131C216.72 106.376 215.097 108.173 212.851 109.52C210.641 110.867 207.791 111.54 204.303 111.54C199.605 111.54 195.875 110.435 193.111 108.224C190.383 106.048 188.828 103.078 188.449 99.3129H199.743C200.054 100.833 201.298 101.593 203.474 101.593C204.821 101.593 205.874 101.247 206.634 100.556C207.394 99.8656 207.774 98.5703 207.774 96.6706V93.1993C207.049 94.5463 205.995 95.6171 204.613 96.4115C203.232 97.1714 201.591 97.5514 199.691 97.5514C197.412 97.5514 195.357 96.9642 193.526 95.7898C191.695 94.5809 190.245 92.8539 189.174 90.6087C188.138 88.329 187.62 85.6522 187.62 82.578C187.62 79.5039 188.138 76.8443 189.174 74.5992C190.245 72.3195 191.695 70.5925 193.526 69.4181C195.357 68.2092 197.412 67.6047 199.691 67.6047ZM207.774 82.578C207.774 81.0237 207.377 79.8148 206.582 78.9513C205.788 78.0878 204.769 77.656 203.525 77.656C202.282 77.656 201.263 78.0878 200.469 78.9513C199.674 79.8148 199.277 81.0237 199.277 82.578C199.277 84.1324 199.674 85.3413 200.469 86.2048C201.263 87.0683 202.282 87.5001 203.525 87.5001C204.769 87.5001 205.788 87.0683 206.582 86.2048C207.377 85.3413 207.774 84.1324 207.774 82.578Z" fill="#FFF9F9"/>
<path d="M255.32 67.9674V97.1887H243.818V92.733C242.92 94.1146 241.711 95.2372 240.191 96.1007C238.706 96.9642 236.927 97.3959 234.855 97.3959C231.504 97.3959 228.879 96.2734 226.98 94.0282C225.114 91.7831 224.182 88.7435 224.182 84.9095V67.9674H235.632V83.4588C235.632 84.8405 235.995 85.9457 236.72 86.7747C237.48 87.5692 238.482 87.9664 239.725 87.9664C241.003 87.9664 242.005 87.5692 242.73 86.7747C243.455 85.9457 243.818 84.8405 243.818 83.4588V67.9674H255.32Z" fill="#FFF9F9"/>
<path d="M288.804 82.319C288.804 83.1134 288.752 83.8733 288.648 84.5987H270.152C270.324 87.1201 271.378 88.3809 273.312 88.3809C274.556 88.3809 275.454 87.8109 276.006 86.6711H288.182C287.767 88.7435 286.887 90.6087 285.539 92.2667C284.227 93.8901 282.552 95.1853 280.514 96.1525C278.51 97.0851 276.3 97.5514 273.882 97.5514C270.981 97.5514 268.39 96.9469 266.11 95.738C263.865 94.5291 262.104 92.802 260.826 90.5569C259.582 88.2772 258.961 85.6176 258.961 82.578C258.961 79.5385 259.582 76.8961 260.826 74.651C262.104 72.3713 263.865 70.627 266.11 69.4181C268.39 68.2092 270.981 67.6047 273.882 67.6047C276.783 67.6047 279.357 68.2092 281.602 69.4181C283.882 70.5925 285.643 72.285 286.887 74.4956C288.165 76.7062 288.804 79.314 288.804 82.319ZM277.146 79.573C277.146 78.6059 276.835 77.8805 276.214 77.397C275.592 76.8789 274.815 76.6198 273.882 76.6198C271.844 76.6198 270.653 77.6042 270.307 79.573H277.146Z" fill="#FFF9F9"/>
</svg>
